<?xml version="1.0" encoding="UTF-8"?>
<svg xmlns="http://www.w3.org/2000/svg" viewBox="0 0 512 512">
  <circle cx="256" cy="256" r="256" fill="#ffffff"/>
  <path fill="#17202C" d="M256 144.812c-61.408 0-111.188 49.78-111.188 111.188S194.592 367.188 256 367.188 367.188 317.408 367.188 256 317.408 144.812 256 144.812zm0 198.75c-48.355 0-87.562-39.207-87.562-87.562S207.645 168.438 256 168.438 343.562 207.645 343.562 256 304.355 343.562 256 343.562z"/>
  <path fill="#17202C" d="M256 183.188c-40.148 0-72.812 32.664-72.812 72.812S215.852 328.812 256 328.812 328.812 296.148 328.812 256 296.148 183.188 256 183.188zm-8.062 114.187l-40.5-40.5 14.25-14.25 26.25 26.25 54-54 14.25 14.25-68.25 68.25z"/>
</svg> 