<?xml version="1.0" encoding="UTF-8"?>
<svg xmlns="http://www.w3.org/2000/svg" viewBox="0 0 512 512">
  <rect width="512" height="512" fill="#ffffff"/>
  <path d="M256,50 C142.2,50 50,142.2 50,256 C50,369.8 142.2,462 256,462 C369.8,462 462,369.8 462,256 C462,142.2 369.8,50 256,50 Z" fill="#25A162"/>
  <path d="M256,90 C164.5,90 90,164.5 90,256 C90,347.5 164.5,422 256,422 C347.5,422 422,347.5 422,256 C422,164.5 347.5,90 256,90 Z" fill="#ffffff"/>
  <g fill="#DC524A">
    <path d="M170,140 L170,372 L210,372 L210,140 Z"/>
    <path d="M230,140 L230,372 L270,372 L270,140 Z"/>
    <path d="M290,140 L290,372 L330,372 L330,140 Z"/>
  </g>
  <path d="M150,160 L350,160 L350,190 L150,190 Z" fill="#DC524A"/>
  <path d="M150,320 L350,320 L350,350 L150,350 Z" fill="#DC524A"/>
</svg> 